solid CADClick
facet normal -0 1 0
 outer loop
  vertex -2.5 -0.5 3
  vertex -0.5 -0.5 3
  vertex -2.5 -0.5 1
 endloop
endfacet
facet normal 0 1 0
 outer loop
  vertex -2.5 -0.5 1
  vertex -0.5 -0.5 3
  vertex -0.5 -0.5 1
 endloop
endfacet
facet normal 1 0 0
 outer loop
  vertex -2.5 0.5 3
  vertex -2.5 -0.5 3
  vertex -2.5 0.5 1
 endloop
endfacet
facet normal 1 0 0
 outer loop
  vertex -2.5 0.5 1
  vertex -2.5 -0.5 3
  vertex -2.5 -0.5 1
 endloop
endfacet
facet normal -0 -1 -0
 outer loop
  vertex -0.5 0.5 3
  vertex -2.5 0.5 3
  vertex -0.5 0.5 1
 endloop
endfacet
facet normal 0 -1 0
 outer loop
  vertex -0.5 0.5 1
  vertex -2.5 0.5 3
  vertex -2.5 0.5 1
 endloop
endfacet
facet normal 1 0 0
 outer loop
  vertex -0.5 2.5 3
  vertex -0.5 0.5 3
  vertex -0.5 2.5 1
 endloop
endfacet
facet normal 1 0 0
 outer loop
  vertex -0.5 2.5 1
  vertex -0.5 0.5 3
  vertex -0.5 0.5 1
 endloop
endfacet
facet normal -0 -1 -0
 outer loop
  vertex 0.5 2.5 3
  vertex -0.5 2.5 3
  vertex 0.5 2.5 1
 endloop
endfacet
facet normal 0 -1 0
 outer loop
  vertex 0.5 2.5 1
  vertex -0.5 2.5 3
  vertex -0.5 2.5 1
 endloop
endfacet
facet normal -1 0 0
 outer loop
  vertex 0.5 0.5 3
  vertex 0.5 2.5 3
  vertex 0.5 0.5 1
 endloop
endfacet
facet normal -1 0 0
 outer loop
  vertex 0.5 0.5 1
  vertex 0.5 2.5 3
  vertex 0.5 2.5 1
 endloop
endfacet
facet normal -0 -1 -0
 outer loop
  vertex 2.5 0.5 3
  vertex 0.5 0.5 3
  vertex 2.5 0.5 1
 endloop
endfacet
facet normal 0 -1 0
 outer loop
  vertex 2.5 0.5 1
  vertex 0.5 0.5 3
  vertex 0.5 0.5 1
 endloop
endfacet
facet normal -1 0 0
 outer loop
  vertex 2.5 -0.5 3
  vertex 2.5 0.5 3
  vertex 2.5 -0.5 1
 endloop
endfacet
facet normal -1 0 0
 outer loop
  vertex 2.5 -0.5 1
  vertex 2.5 0.5 3
  vertex 2.5 0.5 1
 endloop
endfacet
facet normal -0 1 0
 outer loop
  vertex 0.5 -0.5 3
  vertex 2.5 -0.5 3
  vertex 0.5 -0.5 1
 endloop
endfacet
facet normal 0 1 0
 outer loop
  vertex 0.5 -0.5 1
  vertex 2.5 -0.5 3
  vertex 2.5 -0.5 1
 endloop
endfacet
facet normal -1 0 0
 outer loop
  vertex 0.5 -2.5 3
  vertex 0.5 -0.5 3
  vertex 0.5 -2.5 1
 endloop
endfacet
facet normal -1 0 0
 outer loop
  vertex 0.5 -2.5 1
  vertex 0.5 -0.5 3
  vertex 0.5 -0.5 1
 endloop
endfacet
facet normal -0 1 0
 outer loop
  vertex -0.5 -2.5 3
  vertex 0.5 -2.5 3
  vertex -0.5 -2.5 1
 endloop
endfacet
facet normal 0 1 0
 outer loop
  vertex -0.5 -2.5 1
  vertex 0.5 -2.5 3
  vertex 0.5 -2.5 1
 endloop
endfacet
facet normal 1 0 0
 outer loop
  vertex -0.5 -0.5 3
  vertex -0.5 -2.5 3
  vertex -0.5 -0.5 1
 endloop
endfacet
facet normal 1 0 0
 outer loop
  vertex -0.5 -0.5 1
  vertex -0.5 -2.5 3
  vertex -0.5 -2.5 1
 endloop
endfacet
facet normal 0 0 1
 outer loop
  vertex 0.5 2.5 1
  vertex -0.5 2.5 1
  vertex 0.5 0.5 1
 endloop
endfacet
facet normal 0 0 1
 outer loop
  vertex 0.5 0.5 1
  vertex -0.5 2.5 1
  vertex -0.5 0.5 1
 endloop
endfacet
facet normal 0 0 1
 outer loop
  vertex 0.5 0.5 1
  vertex -0.5 0.5 1
  vertex 0.5 -0.5 1
 endloop
endfacet
facet normal 0 0 1
 outer loop
  vertex 0.5 -0.5 1
  vertex -0.5 0.5 1
  vertex -0.5 -0.5 1
 endloop
endfacet
facet normal 0 0 1
 outer loop
  vertex 0.5 -0.5 1
  vertex -0.5 -0.5 1
  vertex 0.5 -2.5 1
 endloop
endfacet
facet normal 0 0 1
 outer loop
  vertex 0.5 -2.5 1
  vertex -0.5 -0.5 1
  vertex -0.5 -2.5 1
 endloop
endfacet
facet normal 0 0 1
 outer loop
  vertex -0.5 0.5 1
  vertex -2.5 0.5 1
  vertex -0.5 -0.5 1
 endloop
endfacet
facet normal 0 0 1
 outer loop
  vertex -0.5 -0.5 1
  vertex -2.5 0.5 1
  vertex -2.5 -0.5 1
 endloop
endfacet
facet normal 0 0 1
 outer loop
  vertex 0.5 -0.5 1
  vertex 2.5 -0.5 1
  vertex 0.5 0.5 1
 endloop
endfacet
facet normal -0 0 1
 outer loop
  vertex 0.5 0.5 1
  vertex 2.5 -0.5 1
  vertex 2.5 0.5 1
 endloop
endfacet
facet normal 0.707 0.022 -0.707
 outer loop
  vertex 1.996 0.123 -11
  vertex 2.495 0.154 -10.5
  vertex 2 0 -11
 endloop
endfacet
facet normal 0.707 0.022 -0.707
 outer loop
  vertex 2 0 -11
  vertex 2.495 0.154 -10.5
  vertex 2.5 0 -10.5
 endloop
endfacet
facet normal 0.707 -0.022 -0.707
 outer loop
  vertex 2 0 -11
  vertex 2.5 0 -10.5
  vertex 1.996 -0.123 -11
 endloop
endfacet
facet normal 0.707 -0.022 -0.707
 outer loop
  vertex 1.996 -0.123 -11
  vertex 2.5 0 -10.5
  vertex 2.495 -0.154 -10.5
 endloop
endfacet
facet normal 0.702 -0.087 -0.706
 outer loop
  vertex 1.996 -0.123 -11
  vertex 2.495 -0.154 -10.5
  vertex 1.966 -0.367 -11
 endloop
endfacet
facet normal 0.702 -0.087 -0.706
 outer loop
  vertex 1.966 -0.367 -11
  vertex 2.495 -0.154 -10.5
  vertex 2.457 -0.459 -10.5
 endloop
endfacet
facet normal 0.686 -0.173 -0.706
 outer loop
  vertex 1.966 -0.367 -11
  vertex 2.457 -0.459 -10.5
  vertex 1.906 -0.606 -11
 endloop
endfacet
facet normal 0.686 -0.173 -0.706
 outer loop
  vertex 1.906 -0.606 -11
  vertex 2.457 -0.459 -10.5
  vertex 2.382 -0.758 -10.5
 endloop
endfacet
facet normal 0.66 -0.256 -0.706
 outer loop
  vertex 1.906 -0.606 -11
  vertex 2.382 -0.758 -10.5
  vertex 1.817 -0.836 -11
 endloop
endfacet
facet normal 0.66 -0.256 -0.706
 outer loop
  vertex 1.817 -0.836 -11
  vertex 2.382 -0.758 -10.5
  vertex 2.271 -1.045 -10.5
 endloop
endfacet
facet normal 0.624 -0.335 -0.706
 outer loop
  vertex 1.817 -0.836 -11
  vertex 2.271 -1.045 -10.5
  vertex 1.7 -1.053 -11
 endloop
endfacet
facet normal 0.624 -0.335 -0.706
 outer loop
  vertex 1.7 -1.053 -11
  vertex 2.271 -1.045 -10.5
  vertex 2.126 -1.316 -10.5
 endloop
endfacet
facet normal 0.578 -0.409 -0.706
 outer loop
  vertex 1.7 -1.053 -11
  vertex 2.126 -1.316 -10.5
  vertex 1.558 -1.254 -11
 endloop
endfacet
facet normal 0.578 -0.409 -0.706
 outer loop
  vertex 1.558 -1.254 -11
  vertex 2.126 -1.316 -10.5
  vertex 1.948 -1.567 -10.5
 endloop
endfacet
facet normal 0.523 -0.477 -0.706
 outer loop
  vertex 1.558 -1.254 -11
  vertex 1.948 -1.567 -10.5
  vertex 1.392 -1.436 -11
 endloop
endfacet
facet normal 0.523 -0.477 -0.706
 outer loop
  vertex 1.392 -1.436 -11
  vertex 1.948 -1.567 -10.5
  vertex 1.74 -1.795 -10.5
 endloop
endfacet
facet normal 0.46 -0.537 -0.706
 outer loop
  vertex 1.392 -1.436 -11
  vertex 1.74 -1.795 -10.5
  vertex 1.205 -1.596 -11
 endloop
endfacet
facet normal 0.46 -0.537 -0.706
 outer loop
  vertex 1.205 -1.596 -11
  vertex 1.74 -1.795 -10.5
  vertex 1.507 -1.995 -10.5
 endloop
endfacet
facet normal 0.391 -0.59 -0.706
 outer loop
  vertex 1.205 -1.596 -11
  vertex 1.507 -1.995 -10.5
  vertex 1 -1.732 -11
 endloop
endfacet
facet normal 0.391 -0.59 -0.706
 outer loop
  vertex 1 -1.732 -11
  vertex 1.507 -1.995 -10.5
  vertex 1.25 -2.165 -10.5
 endloop
endfacet
facet normal 0.315 -0.634 -0.706
 outer loop
  vertex 1 -1.732 -11
  vertex 1.25 -2.165 -10.5
  vertex 0.78 -1.842 -11
 endloop
endfacet
facet normal 0.315 -0.634 -0.706
 outer loop
  vertex 0.78 -1.842 -11
  vertex 1.25 -2.165 -10.5
  vertex 0.974 -2.302 -10.5
 endloop
endfacet
facet normal 0.235 -0.668 -0.706
 outer loop
  vertex 0.78 -1.842 -11
  vertex 0.974 -2.302 -10.5
  vertex 0.547 -1.924 -11
 endloop
endfacet
facet normal 0.235 -0.668 -0.706
 outer loop
  vertex 0.547 -1.924 -11
  vertex 0.974 -2.302 -10.5
  vertex 0.684 -2.405 -10.5
 endloop
endfacet
facet normal 0.151 -0.691 -0.706
 outer loop
  vertex 0.547 -1.924 -11
  vertex 0.684 -2.405 -10.5
  vertex 0.307 -1.976 -11
 endloop
endfacet
facet normal 0.151 -0.691 -0.706
 outer loop
  vertex 0.307 -1.976 -11
  vertex 0.684 -2.405 -10.5
  vertex 0.383 -2.47 -10.5
 endloop
endfacet
facet normal 0.065 -0.705 -0.706
 outer loop
  vertex 0.307 -1.976 -11
  vertex 0.383 -2.47 -10.5
  vertex 0.062 -1.999 -11
 endloop
endfacet
facet normal 0.065 -0.705 -0.706
 outer loop
  vertex 0.062 -1.999 -11
  vertex 0.383 -2.47 -10.5
  vertex 0.077 -2.499 -10.5
 endloop
endfacet
facet normal -0.022 -0.707 -0.706
 outer loop
  vertex 0.062 -1.999 -11
  vertex 0.077 -2.499 -10.5
  vertex -0.185 -1.991 -11
 endloop
endfacet
facet normal -0.022 -0.707 -0.706
 outer loop
  vertex -0.185 -1.991 -11
  vertex 0.077 -2.499 -10.5
  vertex -0.231 -2.489 -10.5
 endloop
endfacet
facet normal -0.109 -0.699 -0.706
 outer loop
  vertex -0.185 -1.991 -11
  vertex -0.231 -2.489 -10.5
  vertex -0.428 -1.954 -11
 endloop
endfacet
facet normal -0.109 -0.699 -0.706
 outer loop
  vertex -0.428 -1.954 -11
  vertex -0.231 -2.489 -10.5
  vertex -0.535 -2.442 -10.5
 endloop
endfacet
facet normal -0.194 -0.681 -0.706
 outer loop
  vertex -0.428 -1.954 -11
  vertex -0.535 -2.442 -10.5
  vertex -0.665 -1.886 -11
 endloop
endfacet
facet normal -0.194 -0.681 -0.706
 outer loop
  vertex -0.665 -1.886 -11
  vertex -0.535 -2.442 -10.5
  vertex -0.831 -2.358 -10.5
 endloop
endfacet
facet normal -0.276 -0.652 -0.706
 outer loop
  vertex -0.665 -1.886 -11
  vertex -0.831 -2.358 -10.5
  vertex -0.891 -1.79 -11
 endloop
endfacet
facet normal -0.276 -0.652 -0.706
 outer loop
  vertex -0.891 -1.79 -11
  vertex -0.831 -2.358 -10.5
  vertex -1.114 -2.238 -10.5
 endloop
endfacet
facet normal -0.354 -0.613 -0.706
 outer loop
  vertex -0.891 -1.79 -11
  vertex -1.114 -2.238 -10.5
  vertex -1.105 -1.667 -11
 endloop
endfacet
facet normal -0.354 -0.613 -0.706
 outer loop
  vertex -1.105 -1.667 -11
  vertex -1.114 -2.238 -10.5
  vertex -1.381 -2.084 -10.5
 endloop
endfacet
facet normal -0.427 -0.565 -0.706
 outer loop
  vertex -1.105 -1.667 -11
  vertex -1.381 -2.084 -10.5
  vertex -1.301 -1.519 -11
 endloop
endfacet
facet normal -0.427 -0.565 -0.706
 outer loop
  vertex -1.301 -1.519 -11
  vertex -1.381 -2.084 -10.5
  vertex -1.627 -1.899 -10.5
 endloop
endfacet
facet normal -0.493 -0.508 -0.706
 outer loop
  vertex -1.301 -1.519 -11
  vertex -1.627 -1.899 -10.5
  vertex -1.478 -1.347 -11
 endloop
endfacet
facet normal -0.493 -0.508 -0.706
 outer loop
  vertex -1.478 -1.347 -11
  vertex -1.627 -1.899 -10.5
  vertex -1.848 -1.684 -10.5
 endloop
endfacet
facet normal -0.551 -0.444 -0.706
 outer loop
  vertex -1.478 -1.347 -11
  vertex -1.848 -1.684 -10.5
  vertex -1.632 -1.156 -11
 endloop
endfacet
facet normal -0.551 -0.444 -0.706
 outer loop
  vertex -1.632 -1.156 -11
  vertex -1.848 -1.684 -10.5
  vertex -2.04 -1.444 -10.5
 endloop
endfacet
facet normal -0.602 -0.373 -0.706
 outer loop
  vertex -1.632 -1.156 -11
  vertex -2.04 -1.444 -10.5
  vertex -1.762 -0.946 -11
 endloop
endfacet
facet normal -0.602 -0.373 -0.706
 outer loop
  vertex -1.762 -0.946 -11
  vertex -2.04 -1.444 -10.5
  vertex -2.203 -1.183 -10.5
 endloop
endfacet
facet normal -0.643 -0.296 -0.706
 outer loop
  vertex -1.762 -0.946 -11
  vertex -2.203 -1.183 -10.5
  vertex -1.865 -0.722 -11
 endloop
endfacet
facet normal -0.643 -0.296 -0.706
 outer loop
  vertex -1.865 -0.722 -11
  vertex -2.203 -1.183 -10.5
  vertex -2.331 -0.903 -10.5
 endloop
endfacet
facet normal -0.674 -0.215 -0.706
 outer loop
  vertex -1.865 -0.722 -11
  vertex -2.331 -0.903 -10.5
  vertex -1.94 -0.488 -11
 endloop
endfacet
facet normal -0.674 -0.215 -0.706
 outer loop
  vertex -1.94 -0.488 -11
  vertex -2.331 -0.903 -10.5
  vertex -2.424 -0.61 -10.5
 endloop
endfacet
facet normal -0.696 -0.13 -0.706
 outer loop
  vertex -1.94 -0.488 -11
  vertex -2.424 -0.61 -10.5
  vertex -1.985 -0.246 -11
 endloop
endfacet
facet normal -0.696 -0.13 -0.706
 outer loop
  vertex -1.985 -0.246 -11
  vertex -2.424 -0.61 -10.5
  vertex -2.481 -0.307 -10.5
 endloop
endfacet
facet normal -0.706 -0.044 -0.706
 outer loop
  vertex -1.985 -0.246 -11
  vertex -2.481 -0.307 -10.5
  vertex -2 -0 -11
 endloop
endfacet
facet normal -0.706 -0.044 -0.706
 outer loop
  vertex -2 -0 -11
  vertex -2.481 -0.307 -10.5
  vertex -2.5 -0 -10.5
 endloop
endfacet
facet normal -0.706 0.044 -0.706
 outer loop
  vertex -2 -0 -11
  vertex -2.5 -0 -10.5
  vertex -1.985 0.246 -11
 endloop
endfacet
facet normal -0.706 0.044 -0.706
 outer loop
  vertex -1.985 0.246 -11
  vertex -2.5 -0 -10.5
  vertex -2.481 0.307 -10.5
 endloop
endfacet
facet normal -0.696 0.13 -0.706
 outer loop
  vertex -1.985 0.246 -11
  vertex -2.481 0.307 -10.5
  vertex -1.94 0.488 -11
 endloop
endfacet
facet normal -0.696 0.13 -0.706
 outer loop
  vertex -1.94 0.488 -11
  vertex -2.481 0.307 -10.5
  vertex -2.424 0.61 -10.5
 endloop
endfacet
facet normal -0.674 0.215 -0.706
 outer loop
  vertex -1.94 0.488 -11
  vertex -2.424 0.61 -10.5
  vertex -1.865 0.722 -11
 endloop
endfacet
facet normal -0.674 0.215 -0.706
 outer loop
  vertex -1.865 0.722 -11
  vertex -2.424 0.61 -10.5
  vertex -2.331 0.903 -10.5
 endloop
endfacet
facet normal -0.643 0.296 -0.706
 outer loop
  vertex -1.865 0.722 -11
  vertex -2.331 0.903 -10.5
  vertex -1.762 0.946 -11
 endloop
endfacet
facet normal -0.643 0.296 -0.706
 outer loop
  vertex -1.762 0.946 -11
  vertex -2.331 0.903 -10.5
  vertex -2.203 1.183 -10.5
 endloop
endfacet
facet normal -0.602 0.373 -0.706
 outer loop
  vertex -1.762 0.946 -11
  vertex -2.203 1.183 -10.5
  vertex -1.632 1.156 -11
 endloop
endfacet
facet normal -0.602 0.373 -0.706
 outer loop
  vertex -1.632 1.156 -11
  vertex -2.203 1.183 -10.5
  vertex -2.04 1.444 -10.5
 endloop
endfacet
facet normal -0.551 0.444 -0.706
 outer loop
  vertex -1.632 1.156 -11
  vertex -2.04 1.444 -10.5
  vertex -1.478 1.347 -11
 endloop
endfacet
facet normal -0.551 0.444 -0.706
 outer loop
  vertex -1.478 1.347 -11
  vertex -2.04 1.444 -10.5
  vertex -1.848 1.684 -10.5
 endloop
endfacet
facet normal -0.493 0.508 -0.706
 outer loop
  vertex -1.478 1.347 -11
  vertex -1.848 1.684 -10.5
  vertex -1.301 1.519 -11
 endloop
endfacet
facet normal -0.493 0.508 -0.706
 outer loop
  vertex -1.301 1.519 -11
  vertex -1.848 1.684 -10.5
  vertex -1.627 1.899 -10.5
 endloop
endfacet
facet normal -0.427 0.565 -0.706
 outer loop
  vertex -1.301 1.519 -11
  vertex -1.627 1.899 -10.5
  vertex -1.105 1.667 -11
 endloop
endfacet
facet normal -0.427 0.565 -0.706
 outer loop
  vertex -1.105 1.667 -11
  vertex -1.627 1.899 -10.5
  vertex -1.381 2.084 -10.5
 endloop
endfacet
facet normal -0.354 0.613 -0.706
 outer loop
  vertex -1.105 1.667 -11
  vertex -1.381 2.084 -10.5
  vertex -0.891 1.79 -11
 endloop
endfacet
facet normal -0.354 0.613 -0.706
 outer loop
  vertex -0.891 1.79 -11
  vertex -1.381 2.084 -10.5
  vertex -1.114 2.238 -10.5
 endloop
endfacet
facet normal -0.276 0.652 -0.706
 outer loop
  vertex -0.891 1.79 -11
  vertex -1.114 2.238 -10.5
  vertex -0.665 1.886 -11
 endloop
endfacet
facet normal -0.276 0.652 -0.706
 outer loop
  vertex -0.665 1.886 -11
  vertex -1.114 2.238 -10.5
  vertex -0.831 2.358 -10.5
 endloop
endfacet
facet normal -0.194 0.681 -0.706
 outer loop
  vertex -0.665 1.886 -11
  vertex -0.831 2.358 -10.5
  vertex -0.428 1.954 -11
 endloop
endfacet
facet normal -0.194 0.681 -0.706
 outer loop
  vertex -0.428 1.954 -11
  vertex -0.831 2.358 -10.5
  vertex -0.535 2.442 -10.5
 endloop
endfacet
facet normal -0.109 0.699 -0.706
 outer loop
  vertex -0.428 1.954 -11
  vertex -0.535 2.442 -10.5
  vertex -0.185 1.991 -11
 endloop
endfacet
facet normal -0.109 0.699 -0.706
 outer loop
  vertex -0.185 1.991 -11
  vertex -0.535 2.442 -10.5
  vertex -0.231 2.489 -10.5
 endloop
endfacet
facet normal -0.022 0.707 -0.706
 outer loop
  vertex -0.185 1.991 -11
  vertex -0.231 2.489 -10.5
  vertex 0.062 1.999 -11
 endloop
endfacet
facet normal -0.022 0.707 -0.706
 outer loop
  vertex 0.062 1.999 -11
  vertex -0.231 2.489 -10.5
  vertex 0.077 2.499 -10.5
 endloop
endfacet
facet normal 0.065 0.705 -0.706
 outer loop
  vertex 0.062 1.999 -11
  vertex 0.077 2.499 -10.5
  vertex 0.307 1.976 -11
 endloop
endfacet
facet normal 0.065 0.705 -0.706
 outer loop
  vertex 0.307 1.976 -11
  vertex 0.077 2.499 -10.5
  vertex 0.383 2.47 -10.5
 endloop
endfacet
facet normal 0.151 0.691 -0.706
 outer loop
  vertex 0.307 1.976 -11
  vertex 0.383 2.47 -10.5
  vertex 0.547 1.924 -11
 endloop
endfacet
facet normal 0.151 0.691 -0.706
 outer loop
  vertex 0.547 1.924 -11
  vertex 0.383 2.47 -10.5
  vertex 0.684 2.405 -10.5
 endloop
endfacet
facet normal 0.235 0.668 -0.706
 outer loop
  vertex 0.547 1.924 -11
  vertex 0.684 2.405 -10.5
  vertex 0.78 1.842 -11
 endloop
endfacet
facet normal 0.235 0.668 -0.706
 outer loop
  vertex 0.78 1.842 -11
  vertex 0.684 2.405 -10.5
  vertex 0.974 2.302 -10.5
 endloop
endfacet
facet normal 0.315 0.634 -0.706
 outer loop
  vertex 0.78 1.842 -11
  vertex 0.974 2.302 -10.5
  vertex 1 1.732 -11
 endloop
endfacet
facet normal 0.315 0.634 -0.706
 outer loop
  vertex 1 1.732 -11
  vertex 0.974 2.302 -10.5
  vertex 1.25 2.165 -10.5
 endloop
endfacet
facet normal 0.391 0.59 -0.706
 outer loop
  vertex 1 1.732 -11
  vertex 1.25 2.165 -10.5
  vertex 1.205 1.596 -11
 endloop
endfacet
facet normal 0.391 0.59 -0.706
 outer loop
  vertex 1.205 1.596 -11
  vertex 1.25 2.165 -10.5
  vertex 1.507 1.995 -10.5
 endloop
endfacet
facet normal 0.46 0.537 -0.706
 outer loop
  vertex 1.205 1.596 -11
  vertex 1.507 1.995 -10.5
  vertex 1.392 1.436 -11
 endloop
endfacet
facet normal 0.46 0.537 -0.706
 outer loop
  vertex 1.392 1.436 -11
  vertex 1.507 1.995 -10.5
  vertex 1.74 1.795 -10.5
 endloop
endfacet
facet normal 0.523 0.477 -0.706
 outer loop
  vertex 1.392 1.436 -11
  vertex 1.74 1.795 -10.5
  vertex 1.558 1.254 -11
 endloop
endfacet
facet normal 0.523 0.477 -0.706
 outer loop
  vertex 1.558 1.254 -11
  vertex 1.74 1.795 -10.5
  vertex 1.948 1.567 -10.5
 endloop
endfacet
facet normal 0.578 0.409 -0.706
 outer loop
  vertex 1.558 1.254 -11
  vertex 1.948 1.567 -10.5
  vertex 1.7 1.053 -11
 endloop
endfacet
facet normal 0.578 0.409 -0.706
 outer loop
  vertex 1.7 1.053 -11
  vertex 1.948 1.567 -10.5
  vertex 2.126 1.316 -10.5
 endloop
endfacet
facet normal 0.624 0.335 -0.706
 outer loop
  vertex 1.7 1.053 -11
  vertex 2.126 1.316 -10.5
  vertex 1.817 0.836 -11
 endloop
endfacet
facet normal 0.624 0.335 -0.706
 outer loop
  vertex 1.817 0.836 -11
  vertex 2.126 1.316 -10.5
  vertex 2.271 1.045 -10.5
 endloop
endfacet
facet normal 0.66 0.256 -0.706
 outer loop
  vertex 1.817 0.836 -11
  vertex 2.271 1.045 -10.5
  vertex 1.906 0.606 -11
 endloop
endfacet
facet normal 0.66 0.256 -0.706
 outer loop
  vertex 1.906 0.606 -11
  vertex 2.271 1.045 -10.5
  vertex 2.382 0.758 -10.5
 endloop
endfacet
facet normal 0.686 0.173 -0.706
 outer loop
  vertex 1.906 0.606 -11
  vertex 2.382 0.758 -10.5
  vertex 1.966 0.367 -11
 endloop
endfacet
facet normal 0.686 0.173 -0.706
 outer loop
  vertex 1.966 0.367 -11
  vertex 2.382 0.758 -10.5
  vertex 2.457 0.459 -10.5
 endloop
endfacet
facet normal 0.702 0.087 -0.706
 outer loop
  vertex 1.966 0.367 -11
  vertex 2.457 0.459 -10.5
  vertex 1.996 0.123 -11
 endloop
endfacet
facet normal 0.702 0.087 -0.706
 outer loop
  vertex 1.996 0.123 -11
  vertex 2.457 0.459 -10.5
  vertex 2.495 0.154 -10.5
 endloop
endfacet
facet normal 0 -0 -1
 outer loop
  vertex 1.996 0.123 -11
  vertex 2 0 -11
  vertex -2 -0 -11
 endloop
endfacet
facet normal 0 0 -1
 outer loop
  vertex -2 -0 -11
  vertex 2 0 -11
  vertex 1.996 -0.123 -11
 endloop
endfacet
facet normal 0 0 -1
 outer loop
  vertex -2 -0 -11
  vertex 1.996 -0.123 -11
  vertex -1.985 -0.246 -11
 endloop
endfacet
facet normal 0 0 -1
 outer loop
  vertex -1.985 -0.246 -11
  vertex 1.996 -0.123 -11
  vertex 1.966 -0.367 -11
 endloop
endfacet
facet normal 0 0 -1
 outer loop
  vertex -1.985 -0.246 -11
  vertex 1.966 -0.367 -11
  vertex -1.94 -0.488 -11
 endloop
endfacet
facet normal 0 0 -1
 outer loop
  vertex -1.94 -0.488 -11
  vertex 1.966 -0.367 -11
  vertex 1.906 -0.606 -11
 endloop
endfacet
facet normal 0 0 -1
 outer loop
  vertex -1.94 -0.488 -11
  vertex 1.906 -0.606 -11
  vertex -1.865 -0.722 -11
 endloop
endfacet
facet normal 0 0 -1
 outer loop
  vertex -1.865 -0.722 -11
  vertex 1.906 -0.606 -11
  vertex 1.817 -0.836 -11
 endloop
endfacet
facet normal 0 0 -1
 outer loop
  vertex -1.865 -0.722 -11
  vertex 1.817 -0.836 -11
  vertex -1.762 -0.946 -11
 endloop
endfacet
facet normal 0 0 -1
 outer loop
  vertex -1.762 -0.946 -11
  vertex 1.817 -0.836 -11
  vertex 1.7 -1.053 -11
 endloop
endfacet
facet normal 0 0 -1
 outer loop
  vertex -1.762 -0.946 -11
  vertex 1.7 -1.053 -11
  vertex -1.632 -1.156 -11
 endloop
endfacet
facet normal 0 0 -1
 outer loop
  vertex -1.632 -1.156 -11
  vertex 1.7 -1.053 -11
  vertex 1.558 -1.254 -11
 endloop
endfacet
facet normal 0 0 -1
 outer loop
  vertex -1.632 -1.156 -11
  vertex 1.558 -1.254 -11
  vertex -1.478 -1.347 -11
 endloop
endfacet
facet normal 0 0 -1
 outer loop
  vertex -1.478 -1.347 -11
  vertex 1.558 -1.254 -11
  vertex 1.392 -1.436 -11
 endloop
endfacet
facet normal 0 0 -1
 outer loop
  vertex -1.478 -1.347 -11
  vertex 1.392 -1.436 -11
  vertex -1.301 -1.519 -11
 endloop
endfacet
facet normal 0 0 -1
 outer loop
  vertex -1.301 -1.519 -11
  vertex 1.392 -1.436 -11
  vertex 1.205 -1.596 -11
 endloop
endfacet
facet normal 0 0 -1
 outer loop
  vertex -1.301 -1.519 -11
  vertex 1.205 -1.596 -11
  vertex -1.105 -1.667 -11
 endloop
endfacet
facet normal 0 0 -1
 outer loop
  vertex -1.105 -1.667 -11
  vertex 1.205 -1.596 -11
  vertex 1 -1.732 -11
 endloop
endfacet
facet normal 0 0 -1
 outer loop
  vertex -1.105 -1.667 -11
  vertex 1 -1.732 -11
  vertex -0.891 -1.79 -11
 endloop
endfacet
facet normal 0 0 -1
 outer loop
  vertex -0.891 -1.79 -11
  vertex 1 -1.732 -11
  vertex 0.78 -1.842 -11
 endloop
endfacet
facet normal 0 0 -1
 outer loop
  vertex -0.891 -1.79 -11
  vertex 0.78 -1.842 -11
  vertex -0.665 -1.886 -11
 endloop
endfacet
facet normal 0 0 -1
 outer loop
  vertex -0.665 -1.886 -11
  vertex 0.78 -1.842 -11
  vertex 0.547 -1.924 -11
 endloop
endfacet
facet normal 0 0 -1
 outer loop
  vertex -0.665 -1.886 -11
  vertex 0.547 -1.924 -11
  vertex -0.428 -1.954 -11
 endloop
endfacet
facet normal 0 0 -1
 outer loop
  vertex -0.428 -1.954 -11
  vertex 0.547 -1.924 -11
  vertex 0.307 -1.976 -11
 endloop
endfacet
facet normal 0 0 -1
 outer loop
  vertex -0.428 -1.954 -11
  vertex 0.307 -1.976 -11
  vertex -0.185 -1.991 -11
 endloop
endfacet
facet normal 0 0 -1
 outer loop
  vertex -0.185 -1.991 -11
  vertex 0.307 -1.976 -11
  vertex 0.062 -1.999 -11
 endloop
endfacet
facet normal 0 0 -1
 outer loop
  vertex -2 -0 -11
  vertex -1.985 0.246 -11
  vertex 1.996 0.123 -11
 endloop
endfacet
facet normal 0 0 -1
 outer loop
  vertex 1.996 0.123 -11
  vertex -1.985 0.246 -11
  vertex 1.966 0.367 -11
 endloop
endfacet
facet normal 0 0 -1
 outer loop
  vertex -1.985 0.246 -11
  vertex -1.94 0.488 -11
  vertex 1.966 0.367 -11
 endloop
endfacet
facet normal 0 0 -1
 outer loop
  vertex 1.966 0.367 -11
  vertex -1.94 0.488 -11
  vertex 1.906 0.606 -11
 endloop
endfacet
facet normal 0 0 -1
 outer loop
  vertex -1.94 0.488 -11
  vertex -1.865 0.722 -11
  vertex 1.906 0.606 -11
 endloop
endfacet
facet normal 0 0 -1
 outer loop
  vertex 1.906 0.606 -11
  vertex -1.865 0.722 -11
  vertex 1.817 0.836 -11
 endloop
endfacet
facet normal 0 0 -1
 outer loop
  vertex -1.865 0.722 -11
  vertex -1.762 0.946 -11
  vertex 1.817 0.836 -11
 endloop
endfacet
facet normal 0 0 -1
 outer loop
  vertex 1.817 0.836 -11
  vertex -1.762 0.946 -11
  vertex 1.7 1.053 -11
 endloop
endfacet
facet normal 0 0 -1
 outer loop
  vertex -1.762 0.946 -11
  vertex -1.632 1.156 -11
  vertex 1.7 1.053 -11
 endloop
endfacet
facet normal 0 0 -1
 outer loop
  vertex 1.7 1.053 -11
  vertex -1.632 1.156 -11
  vertex 1.558 1.254 -11
 endloop
endfacet
facet normal 0 0 -1
 outer loop
  vertex -1.632 1.156 -11
  vertex -1.478 1.347 -11
  vertex 1.558 1.254 -11
 endloop
endfacet
facet normal 0 0 -1
 outer loop
  vertex 1.558 1.254 -11
  vertex -1.478 1.347 -11
  vertex 1.392 1.436 -11
 endloop
endfacet
facet normal 0 0 -1
 outer loop
  vertex -1.478 1.347 -11
  vertex -1.301 1.519 -11
  vertex 1.392 1.436 -11
 endloop
endfacet
facet normal 0 0 -1
 outer loop
  vertex 1.392 1.436 -11
  vertex -1.301 1.519 -11
  vertex 1.205 1.596 -11
 endloop
endfacet
facet normal 0 0 -1
 outer loop
  vertex -1.301 1.519 -11
  vertex -1.105 1.667 -11
  vertex 1.205 1.596 -11
 endloop
endfacet
facet normal 0 0 -1
 outer loop
  vertex 1.205 1.596 -11
  vertex -1.105 1.667 -11
  vertex 1 1.732 -11
 endloop
endfacet
facet normal 0 0 -1
 outer loop
  vertex -1.105 1.667 -11
  vertex -0.891 1.79 -11
  vertex 1 1.732 -11
 endloop
endfacet
facet normal 0 0 -1
 outer loop
  vertex 1 1.732 -11
  vertex -0.891 1.79 -11
  vertex 0.78 1.842 -11
 endloop
endfacet
facet normal 0 0 -1
 outer loop
  vertex -0.891 1.79 -11
  vertex -0.665 1.886 -11
  vertex 0.78 1.842 -11
 endloop
endfacet
facet normal 0 0 -1
 outer loop
  vertex 0.78 1.842 -11
  vertex -0.665 1.886 -11
  vertex 0.547 1.924 -11
 endloop
endfacet
facet normal 0 0 -1
 outer loop
  vertex -0.665 1.886 -11
  vertex -0.428 1.954 -11
  vertex 0.547 1.924 -11
 endloop
endfacet
facet normal 0 0 -1
 outer loop
  vertex 0.547 1.924 -11
  vertex -0.428 1.954 -11
  vertex 0.307 1.976 -11
 endloop
endfacet
facet normal 0 0 -1
 outer loop
  vertex -0.428 1.954 -11
  vertex -0.185 1.991 -11
  vertex 0.307 1.976 -11
 endloop
endfacet
facet normal 0 0 -1
 outer loop
  vertex 0.307 1.976 -11
  vertex -0.185 1.991 -11
  vertex 0.062 1.999 -11
 endloop
endfacet
facet normal 0 0 1
 outer loop
  vertex 0.5 0.5 3
  vertex 2.5 0.5 3
  vertex 0.5 2.5 3
 endloop
endfacet
facet normal -0 0 1
 outer loop
  vertex 0.5 2.5 3
  vertex 2.5 0.5 3
  vertex 3.237 3.338 3
 endloop
endfacet
facet normal 0 0 1
 outer loop
  vertex 0.5 2.5 3
  vertex 3.237 3.338 3
  vertex 2.802 3.711 3
 endloop
endfacet
facet normal 0 -0 1
 outer loop
  vertex 4.571 -0.854 3
  vertex 4.641 -0.286 3
  vertex 2.5 -0.5 3
 endloop
endfacet
facet normal 0 0 1
 outer loop
  vertex 2.5 -0.5 3
  vertex 4.641 -0.286 3
  vertex 4.65 0 3
 endloop
endfacet
facet normal 0 0 1
 outer loop
  vertex 2.5 -0.5 3
  vertex 4.65 0 3
  vertex 2.5 0.5 3
 endloop
endfacet
facet normal 0 0 1
 outer loop
  vertex 2.5 0.5 3
  vertex 4.65 0 3
  vertex 4.641 0.286 3
 endloop
endfacet
facet normal -0 0 1
 outer loop
  vertex 2.5 0.5 3
  vertex 4.641 0.286 3
  vertex 4.571 0.854 3
 endloop
endfacet
facet normal -0 0 1
 outer loop
  vertex 0.5 -0.5 3
  vertex 0.5 -2.5 3
  vertex 2.5 -0.5 3
 endloop
endfacet
facet normal 0 0 1
 outer loop
  vertex 2.5 -0.5 3
  vertex 0.5 -2.5 3
  vertex 3.237 -3.338 3
 endloop
endfacet
facet normal 0 0 1
 outer loop
  vertex 2.5 -0.5 3
  vertex 3.237 -3.338 3
  vertex 3.623 -2.915 3
 endloop
endfacet
facet normal -0 0 1
 outer loop
  vertex -0.995 -4.542 3
  vertex -0.429 -4.63 3
  vertex -0.5 -2.5 3
 endloop
endfacet
facet normal 0 0 1
 outer loop
  vertex -0.5 -2.5 3
  vertex -0.429 -4.63 3
  vertex 0.143 -4.648 3
 endloop
endfacet
facet normal -0 0 1
 outer loop
  vertex -0.5 -2.5 3
  vertex 0.143 -4.648 3
  vertex 0.5 -2.5 3
 endloop
endfacet
facet normal 0 0 1
 outer loop
  vertex 0.5 -2.5 3
  vertex 0.143 -4.648 3
  vertex 0.713 -4.595 3
 endloop
endfacet
facet normal 0 0 1
 outer loop
  vertex 0.5 -2.5 3
  vertex 0.713 -4.595 3
  vertex 1.273 -4.472 3
 endloop
endfacet
facet normal 0 0 1
 outer loop
  vertex -0.5 -0.5 3
  vertex -2.5 -0.5 3
  vertex -0.5 -2.5 3
 endloop
endfacet
facet normal 0 0 1
 outer loop
  vertex -0.5 -2.5 3
  vertex -2.5 -0.5 3
  vertex -3.436 -3.133 3
 endloop
endfacet
facet normal 0 0 1
 outer loop
  vertex -0.5 -2.5 3
  vertex -3.436 -3.133 3
  vertex -3.025 -3.531 3
 endloop
endfacet
facet normal 0 0 1
 outer loop
  vertex -4.51 1.134 3
  vertex -4.615 0.571 3
  vertex -2.5 0.5 3
 endloop
endfacet
facet normal 0 0 1
 outer loop
  vertex -2.5 0.5 3
  vertex -4.615 0.571 3
  vertex -4.65 -0 3
 endloop
endfacet
facet normal 0 0 1
 outer loop
  vertex -2.5 0.5 3
  vertex -4.65 -0 3
  vertex -2.5 -0.5 3
 endloop
endfacet
facet normal 0 0 1
 outer loop
  vertex -2.5 -0.5 3
  vertex -4.65 -0 3
  vertex -4.615 -0.571 3
 endloop
endfacet
facet normal 0 0 1
 outer loop
  vertex -2.5 -0.5 3
  vertex -4.615 -0.571 3
  vertex -4.51 -1.134 3
 endloop
endfacet
facet normal 0 -0 1
 outer loop
  vertex -0.5 0.5 3
  vertex -0.5 2.5 3
  vertex -2.5 0.5 3
 endloop
endfacet
facet normal 0 -0 1
 outer loop
  vertex -2.5 0.5 3
  vertex -0.5 2.5 3
  vertex -3.436 3.133 3
 endloop
endfacet
facet normal 0 0 1
 outer loop
  vertex -2.5 0.5 3
  vertex -3.436 3.133 3
  vertex -3.795 2.687 3
 endloop
endfacet
facet normal 0 0 1
 outer loop
  vertex 1.273 4.472 3
  vertex 0.713 4.595 3
  vertex 0.5 2.5 3
 endloop
endfacet
facet normal 0 -0 1
 outer loop
  vertex 0.5 2.5 3
  vertex 0.713 4.595 3
  vertex 0.143 4.648 3
 endloop
endfacet
facet normal 0 0 1
 outer loop
  vertex 0.5 2.5 3
  vertex 0.143 4.648 3
  vertex -0.5 2.5 3
 endloop
endfacet
facet normal 0 0 1
 outer loop
  vertex -0.5 2.5 3
  vertex 0.143 4.648 3
  vertex -0.429 4.63 3
 endloop
endfacet
facet normal 0 -0 1
 outer loop
  vertex -0.5 2.5 3
  vertex -0.429 4.63 3
  vertex -0.995 4.542 3
 endloop
endfacet
facet normal 0 0 1
 outer loop
  vertex 4.571 0.854 3
  vertex 4.431 1.41 3
  vertex 2.5 0.5 3
 endloop
endfacet
facet normal 0 0 1
 outer loop
  vertex 2.5 0.5 3
  vertex 4.431 1.41 3
  vertex 4.224 1.944 3
 endloop
endfacet
facet normal 0 0 1
 outer loop
  vertex 2.5 0.5 3
  vertex 4.224 1.944 3
  vertex 3.954 2.448 3
 endloop
endfacet
facet normal 0 0 1
 outer loop
  vertex 3.954 2.448 3
  vertex 3.623 2.915 3
  vertex 2.5 0.5 3
 endloop
endfacet
facet normal 0 0 1
 outer loop
  vertex 2.5 0.5 3
  vertex 3.623 2.915 3
  vertex 3.237 3.338 3
 endloop
endfacet
facet normal 0 0 1
 outer loop
  vertex 2.802 3.711 3
  vertex 2.325 4.027 3
  vertex 0.5 2.5 3
 endloop
endfacet
facet normal 0 0 1
 outer loop
  vertex 0.5 2.5 3
  vertex 2.325 4.027 3
  vertex 1.813 4.282 3
 endloop
endfacet
facet normal 0 0 1
 outer loop
  vertex 0.5 2.5 3
  vertex 1.813 4.282 3
  vertex 1.273 4.472 3
 endloop
endfacet
facet normal 0 0 1
 outer loop
  vertex -0.995 4.542 3
  vertex -1.545 4.386 3
  vertex -0.5 2.5 3
 endloop
endfacet
facet normal 0 0 1
 outer loop
  vertex -0.5 2.5 3
  vertex -1.545 4.386 3
  vertex -2.073 4.163 3
 endloop
endfacet
facet normal 0 0 1
 outer loop
  vertex -0.5 2.5 3
  vertex -2.073 4.163 3
  vertex -2.568 3.876 3
 endloop
endfacet
facet normal 0 0 1
 outer loop
  vertex -2.568 3.876 3
  vertex -3.025 3.531 3
  vertex -0.5 2.5 3
 endloop
endfacet
facet normal 0 0 1
 outer loop
  vertex -0.5 2.5 3
  vertex -3.025 3.531 3
  vertex -3.436 3.133 3
 endloop
endfacet
facet normal 0 0 1
 outer loop
  vertex -3.795 2.687 3
  vertex -4.097 2.2 3
  vertex -2.5 0.5 3
 endloop
endfacet
facet normal 0 0 1
 outer loop
  vertex -2.5 0.5 3
  vertex -4.097 2.2 3
  vertex -4.336 1.68 3
 endloop
endfacet
facet normal 0 0 1
 outer loop
  vertex -2.5 0.5 3
  vertex -4.336 1.68 3
  vertex -4.51 1.134 3
 endloop
endfacet
facet normal -0 0 1
 outer loop
  vertex -4.51 -1.134 3
  vertex -4.336 -1.68 3
  vertex -2.5 -0.5 3
 endloop
endfacet
facet normal 0 0 1
 outer loop
  vertex -2.5 -0.5 3
  vertex -4.336 -1.68 3
  vertex -4.097 -2.2 3
 endloop
endfacet
facet normal 0 0 1
 outer loop
  vertex -2.5 -0.5 3
  vertex -4.097 -2.2 3
  vertex -3.795 -2.687 3
 endloop
endfacet
facet normal -0 0 1
 outer loop
  vertex -3.795 -2.687 3
  vertex -3.436 -3.133 3
  vertex -2.5 -0.5 3
 endloop
endfacet
facet normal -0 0 1
 outer loop
  vertex -3.025 -3.531 3
  vertex -2.568 -3.876 3
  vertex -0.5 -2.5 3
 endloop
endfacet
facet normal 0 0 1
 outer loop
  vertex -0.5 -2.5 3
  vertex -2.568 -3.876 3
  vertex -2.073 -4.163 3
 endloop
endfacet
facet normal 0 0 1
 outer loop
  vertex -0.5 -2.5 3
  vertex -2.073 -4.163 3
  vertex -1.545 -4.386 3
 endloop
endfacet
facet normal -0 0 1
 outer loop
  vertex -1.545 -4.386 3
  vertex -0.995 -4.542 3
  vertex -0.5 -2.5 3
 endloop
endfacet
facet normal 0 -0 1
 outer loop
  vertex 1.273 -4.472 3
  vertex 1.813 -4.282 3
  vertex 0.5 -2.5 3
 endloop
endfacet
facet normal 0 0 1
 outer loop
  vertex 0.5 -2.5 3
  vertex 1.813 -4.282 3
  vertex 2.325 -4.027 3
 endloop
endfacet
facet normal 0 0 1
 outer loop
  vertex 0.5 -2.5 3
  vertex 2.325 -4.027 3
  vertex 2.802 -3.711 3
 endloop
endfacet
facet normal 0 -0 1
 outer loop
  vertex 2.802 -3.711 3
  vertex 3.237 -3.338 3
  vertex 0.5 -2.5 3
 endloop
endfacet
facet normal 0 -0 1
 outer loop
  vertex 3.623 -2.915 3
  vertex 3.954 -2.448 3
  vertex 2.5 -0.5 3
 endloop
endfacet
facet normal 0 0 1
 outer loop
  vertex 2.5 -0.5 3
  vertex 3.954 -2.448 3
  vertex 4.224 -1.944 3
 endloop
endfacet
facet normal 0 0 1
 outer loop
  vertex 2.5 -0.5 3
  vertex 4.224 -1.944 3
  vertex 4.431 -1.41 3
 endloop
endfacet
facet normal 0 -0 1
 outer loop
  vertex 4.431 -1.41 3
  vertex 4.571 -0.854 3
  vertex 2.5 -0.5 3
 endloop
endfacet
facet normal 0.813 0.025 -0.582
 outer loop
  vertex 2.495 0.154 0
  vertex 4.641 0.286 3
  vertex 2.5 0 0
 endloop
endfacet
facet normal 0.813 0.025 -0.582
 outer loop
  vertex 2.5 0 0
  vertex 4.641 0.286 3
  vertex 4.65 0 3
 endloop
endfacet
facet normal 0.813 -0.025 -0.582
 outer loop
  vertex 2.5 0 0
  vertex 4.65 0 3
  vertex 2.495 -0.154 0
 endloop
endfacet
facet normal 0.813 -0.025 -0.582
 outer loop
  vertex 2.495 -0.154 0
  vertex 4.65 0 3
  vertex 4.641 -0.286 3
 endloop
endfacet
facet normal 0.807 -0.1 -0.582
 outer loop
  vertex 2.495 -0.154 0
  vertex 4.641 -0.286 3
  vertex 2.457 -0.459 0
 endloop
endfacet
facet normal 0.807 -0.1 -0.582
 outer loop
  vertex 2.457 -0.459 0
  vertex 4.641 -0.286 3
  vertex 4.571 -0.854 3
 endloop
endfacet
facet normal 0.789 -0.198 -0.582
 outer loop
  vertex 2.457 -0.459 0
  vertex 4.571 -0.854 3
  vertex 2.382 -0.758 0
 endloop
endfacet
facet normal 0.789 -0.198 -0.582
 outer loop
  vertex 2.382 -0.758 0
  vertex 4.571 -0.854 3
  vertex 4.431 -1.41 3
 endloop
endfacet
facet normal 0.758 -0.294 -0.582
 outer loop
  vertex 2.382 -0.758 0
  vertex 4.431 -1.41 3
  vertex 2.271 -1.045 0
 endloop
endfacet
facet normal 0.758 -0.294 -0.582
 outer loop
  vertex 2.271 -1.045 0
  vertex 4.431 -1.41 3
  vertex 4.224 -1.944 3
 endloop
endfacet
facet normal 0.717 -0.385 -0.582
 outer loop
  vertex 2.271 -1.045 0
  vertex 4.224 -1.944 3
  vertex 2.126 -1.316 0
 endloop
endfacet
facet normal 0.717 -0.385 -0.582
 outer loop
  vertex 2.126 -1.316 0
  vertex 4.224 -1.944 3
  vertex 3.954 -2.448 3
 endloop
endfacet
facet normal 0.664 -0.47 -0.582
 outer loop
  vertex 2.126 -1.316 0
  vertex 3.954 -2.448 3
  vertex 1.948 -1.567 0
 endloop
endfacet
facet normal 0.664 -0.47 -0.582
 outer loop
  vertex 1.948 -1.567 0
  vertex 3.954 -2.448 3
  vertex 3.623 -2.915 3
 endloop
endfacet
facet normal 0.601 -0.548 -0.582
 outer loop
  vertex 1.948 -1.567 0
  vertex 3.623 -2.915 3
  vertex 1.74 -1.795 0
 endloop
endfacet
facet normal 0.601 -0.548 -0.582
 outer loop
  vertex 1.74 -1.795 0
  vertex 3.623 -2.915 3
  vertex 3.237 -3.338 3
 endloop
endfacet
facet normal 0.529 -0.618 -0.582
 outer loop
  vertex 1.74 -1.795 0
  vertex 3.237 -3.338 3
  vertex 1.507 -1.995 0
 endloop
endfacet
facet normal 0.529 -0.618 -0.582
 outer loop
  vertex 1.507 -1.995 0
  vertex 3.237 -3.338 3
  vertex 2.802 -3.711 3
 endloop
endfacet
facet normal 0.449 -0.678 -0.582
 outer loop
  vertex 1.507 -1.995 0
  vertex 2.802 -3.711 3
  vertex 1.25 -2.165 0
 endloop
endfacet
facet normal 0.449 -0.678 -0.582
 outer loop
  vertex 1.25 -2.165 0
  vertex 2.802 -3.711 3
  vertex 2.325 -4.027 3
 endloop
endfacet
facet normal 0.363 -0.728 -0.582
 outer loop
  vertex 1.25 -2.165 0
  vertex 2.325 -4.027 3
  vertex 0.974 -2.302 0
 endloop
endfacet
facet normal 0.363 -0.728 -0.582
 outer loop
  vertex 0.974 -2.302 0
  vertex 2.325 -4.027 3
  vertex 1.813 -4.282 3
 endloop
endfacet
facet normal 0.27 -0.767 -0.582
 outer loop
  vertex 0.974 -2.302 0
  vertex 1.813 -4.282 3
  vertex 0.684 -2.405 0
 endloop
endfacet
facet normal 0.27 -0.767 -0.582
 outer loop
  vertex 0.684 -2.405 0
  vertex 1.813 -4.282 3
  vertex 1.273 -4.472 3
 endloop
endfacet
facet normal 0.174 -0.795 -0.582
 outer loop
  vertex 0.684 -2.405 0
  vertex 1.273 -4.472 3
  vertex 0.383 -2.47 0
 endloop
endfacet
facet normal 0.174 -0.795 -0.582
 outer loop
  vertex 0.383 -2.47 0
  vertex 1.273 -4.472 3
  vertex 0.713 -4.595 3
 endloop
endfacet
facet normal 0.075 -0.81 -0.582
 outer loop
  vertex 0.383 -2.47 0
  vertex 0.713 -4.595 3
  vertex 0.077 -2.499 0
 endloop
endfacet
facet normal 0.075 -0.81 -0.582
 outer loop
  vertex 0.077 -2.499 0
  vertex 0.713 -4.595 3
  vertex 0.143 -4.648 3
 endloop
endfacet
facet normal -0.025 -0.813 -0.582
 outer loop
  vertex 0.077 -2.499 0
  vertex 0.143 -4.648 3
  vertex -0.231 -2.489 0
 endloop
endfacet
facet normal -0.025 -0.813 -0.582
 outer loop
  vertex -0.231 -2.489 0
  vertex 0.143 -4.648 3
  vertex -0.429 -4.63 3
 endloop
endfacet
facet normal -0.125 -0.804 -0.582
 outer loop
  vertex -0.231 -2.489 0
  vertex -0.429 -4.63 3
  vertex -0.535 -2.442 0
 endloop
endfacet
facet normal -0.125 -0.804 -0.582
 outer loop
  vertex -0.535 -2.442 0
  vertex -0.429 -4.63 3
  vertex -0.995 -4.542 3
 endloop
endfacet
facet normal -0.223 -0.782 -0.582
 outer loop
  vertex -0.535 -2.442 0
  vertex -0.995 -4.542 3
  vertex -0.831 -2.358 0
 endloop
endfacet
facet normal -0.223 -0.782 -0.582
 outer loop
  vertex -0.831 -2.358 0
  vertex -0.995 -4.542 3
  vertex -1.545 -4.386 3
 endloop
endfacet
facet normal -0.317 -0.749 -0.582
 outer loop
  vertex -0.831 -2.358 0
  vertex -1.545 -4.386 3
  vertex -1.114 -2.238 0
 endloop
endfacet
facet normal -0.317 -0.749 -0.582
 outer loop
  vertex -1.114 -2.238 0
  vertex -1.545 -4.386 3
  vertex -2.073 -4.163 3
 endloop
endfacet
facet normal -0.407 -0.704 -0.582
 outer loop
  vertex -1.114 -2.238 0
  vertex -2.073 -4.163 3
  vertex -1.381 -2.084 0
 endloop
endfacet
facet normal -0.407 -0.704 -0.582
 outer loop
  vertex -1.381 -2.084 0
  vertex -2.073 -4.163 3
  vertex -2.568 -3.876 3
 endloop
endfacet
facet normal -0.49 -0.649 -0.582
 outer loop
  vertex -1.381 -2.084 0
  vertex -2.568 -3.876 3
  vertex -1.627 -1.899 0
 endloop
endfacet
facet normal -0.49 -0.649 -0.582
 outer loop
  vertex -1.627 -1.899 0
  vertex -2.568 -3.876 3
  vertex -3.025 -3.531 3
 endloop
endfacet
facet normal -0.566 -0.584 -0.582
 outer loop
  vertex -1.627 -1.899 0
  vertex -3.025 -3.531 3
  vertex -1.848 -1.684 0
 endloop
endfacet
facet normal -0.566 -0.584 -0.582
 outer loop
  vertex -1.848 -1.684 0
  vertex -3.025 -3.531 3
  vertex -3.436 -3.133 3
 endloop
endfacet
facet normal -0.634 -0.51 -0.582
 outer loop
  vertex -1.848 -1.684 0
  vertex -3.436 -3.133 3
  vertex -2.04 -1.444 0
 endloop
endfacet
facet normal -0.634 -0.51 -0.582
 outer loop
  vertex -2.04 -1.444 0
  vertex -3.436 -3.133 3
  vertex -3.795 -2.687 3
 endloop
endfacet
facet normal -0.692 -0.428 -0.582
 outer loop
  vertex -2.04 -1.444 0
  vertex -3.795 -2.687 3
  vertex -2.203 -1.183 0
 endloop
endfacet
facet normal -0.692 -0.428 -0.582
 outer loop
  vertex -2.203 -1.183 0
  vertex -3.795 -2.687 3
  vertex -4.097 -2.2 3
 endloop
endfacet
facet normal -0.739 -0.34 -0.582
 outer loop
  vertex -2.203 -1.183 0
  vertex -4.097 -2.2 3
  vertex -2.331 -0.903 0
 endloop
endfacet
facet normal -0.739 -0.34 -0.582
 outer loop
  vertex -2.331 -0.903 0
  vertex -4.097 -2.2 3
  vertex -4.336 -1.68 3
 endloop
endfacet
facet normal -0.775 -0.247 -0.582
 outer loop
  vertex -2.331 -0.903 0
  vertex -4.336 -1.68 3
  vertex -2.424 -0.61 0
 endloop
endfacet
facet normal -0.775 -0.247 -0.582
 outer loop
  vertex -2.424 -0.61 0
  vertex -4.336 -1.68 3
  vertex -4.51 -1.134 3
 endloop
endfacet
facet normal -0.799 -0.149 -0.582
 outer loop
  vertex -2.424 -0.61 0
  vertex -4.51 -1.134 3
  vertex -2.481 -0.307 0
 endloop
endfacet
facet normal -0.799 -0.149 -0.582
 outer loop
  vertex -2.481 -0.307 0
  vertex -4.51 -1.134 3
  vertex -4.615 -0.571 3
 endloop
endfacet
facet normal -0.812 -0.05 -0.582
 outer loop
  vertex -2.481 -0.307 0
  vertex -4.615 -0.571 3
  vertex -2.5 -0 0
 endloop
endfacet
facet normal -0.812 -0.05 -0.582
 outer loop
  vertex -2.5 -0 0
  vertex -4.615 -0.571 3
  vertex -4.65 -0 3
 endloop
endfacet
facet normal -0.812 0.05 -0.582
 outer loop
  vertex -2.5 -0 0
  vertex -4.65 -0 3
  vertex -2.481 0.307 0
 endloop
endfacet
facet normal -0.812 0.05 -0.582
 outer loop
  vertex -2.481 0.307 0
  vertex -4.65 -0 3
  vertex -4.615 0.571 3
 endloop
endfacet
facet normal -0.799 0.149 -0.582
 outer loop
  vertex -2.481 0.307 0
  vertex -4.615 0.571 3
  vertex -2.424 0.61 0
 endloop
endfacet
facet normal -0.799 0.149 -0.582
 outer loop
  vertex -2.424 0.61 0
  vertex -4.615 0.571 3
  vertex -4.51 1.134 3
 endloop
endfacet
facet normal -0.775 0.247 -0.582
 outer loop
  vertex -2.424 0.61 0
  vertex -4.51 1.134 3
  vertex -2.331 0.903 0
 endloop
endfacet
facet normal -0.775 0.247 -0.582
 outer loop
  vertex -2.331 0.903 0
  vertex -4.51 1.134 3
  vertex -4.336 1.68 3
 endloop
endfacet
facet normal -0.739 0.34 -0.582
 outer loop
  vertex -2.331 0.903 0
  vertex -4.336 1.68 3
  vertex -2.203 1.183 0
 endloop
endfacet
facet normal -0.739 0.34 -0.582
 outer loop
  vertex -2.203 1.183 0
  vertex -4.336 1.68 3
  vertex -4.097 2.2 3
 endloop
endfacet
facet normal -0.692 0.428 -0.582
 outer loop
  vertex -2.203 1.183 0
  vertex -4.097 2.2 3
  vertex -2.04 1.444 0
 endloop
endfacet
facet normal -0.692 0.428 -0.582
 outer loop
  vertex -2.04 1.444 0
  vertex -4.097 2.2 3
  vertex -3.795 2.687 3
 endloop
endfacet
facet normal -0.634 0.51 -0.582
 outer loop
  vertex -2.04 1.444 0
  vertex -3.795 2.687 3
  vertex -1.848 1.684 0
 endloop
endfacet
facet normal -0.634 0.51 -0.582
 outer loop
  vertex -1.848 1.684 0
  vertex -3.795 2.687 3
  vertex -3.436 3.133 3
 endloop
endfacet
facet normal -0.566 0.584 -0.582
 outer loop
  vertex -1.848 1.684 0
  vertex -3.436 3.133 3
  vertex -1.627 1.899 0
 endloop
endfacet
facet normal -0.566 0.584 -0.582
 outer loop
  vertex -1.627 1.899 0
  vertex -3.436 3.133 3
  vertex -3.025 3.531 3
 endloop
endfacet
facet normal -0.49 0.649 -0.582
 outer loop
  vertex -1.627 1.899 0
  vertex -3.025 3.531 3
  vertex -1.381 2.084 0
 endloop
endfacet
facet normal -0.49 0.649 -0.582
 outer loop
  vertex -1.381 2.084 0
  vertex -3.025 3.531 3
  vertex -2.568 3.876 3
 endloop
endfacet
facet normal -0.407 0.704 -0.582
 outer loop
  vertex -1.381 2.084 0
  vertex -2.568 3.876 3
  vertex -1.114 2.238 0
 endloop
endfacet
facet normal -0.407 0.704 -0.582
 outer loop
  vertex -1.114 2.238 0
  vertex -2.568 3.876 3
  vertex -2.073 4.163 3
 endloop
endfacet
facet normal -0.317 0.749 -0.582
 outer loop
  vertex -1.114 2.238 0
  vertex -2.073 4.163 3
  vertex -0.831 2.358 0
 endloop
endfacet
facet normal -0.317 0.749 -0.582
 outer loop
  vertex -0.831 2.358 0
  vertex -2.073 4.163 3
  vertex -1.545 4.386 3
 endloop
endfacet
facet normal -0.223 0.782 -0.582
 outer loop
  vertex -0.831 2.358 0
  vertex -1.545 4.386 3
  vertex -0.535 2.442 0
 endloop
endfacet
facet normal -0.223 0.782 -0.582
 outer loop
  vertex -0.535 2.442 0
  vertex -1.545 4.386 3
  vertex -0.995 4.542 3
 endloop
endfacet
facet normal -0.125 0.804 -0.582
 outer loop
  vertex -0.535 2.442 0
  vertex -0.995 4.542 3
  vertex -0.231 2.489 0
 endloop
endfacet
facet normal -0.125 0.804 -0.582
 outer loop
  vertex -0.231 2.489 0
  vertex -0.995 4.542 3
  vertex -0.429 4.63 3
 endloop
endfacet
facet normal -0.025 0.813 -0.582
 outer loop
  vertex -0.231 2.489 0
  vertex -0.429 4.63 3
  vertex 0.077 2.499 0
 endloop
endfacet
facet normal -0.025 0.813 -0.582
 outer loop
  vertex 0.077 2.499 0
  vertex -0.429 4.63 3
  vertex 0.143 4.648 3
 endloop
endfacet
facet normal 0.075 0.81 -0.582
 outer loop
  vertex 0.077 2.499 0
  vertex 0.143 4.648 3
  vertex 0.383 2.47 0
 endloop
endfacet
facet normal 0.075 0.81 -0.582
 outer loop
  vertex 0.383 2.47 0
  vertex 0.143 4.648 3
  vertex 0.713 4.595 3
 endloop
endfacet
facet normal 0.174 0.795 -0.582
 outer loop
  vertex 0.383 2.47 0
  vertex 0.713 4.595 3
  vertex 0.684 2.405 0
 endloop
endfacet
facet normal 0.174 0.795 -0.582
 outer loop
  vertex 0.684 2.405 0
  vertex 0.713 4.595 3
  vertex 1.273 4.472 3
 endloop
endfacet
facet normal 0.27 0.767 -0.582
 outer loop
  vertex 0.684 2.405 0
  vertex 1.273 4.472 3
  vertex 0.974 2.302 0
 endloop
endfacet
facet normal 0.27 0.767 -0.582
 outer loop
  vertex 0.974 2.302 0
  vertex 1.273 4.472 3
  vertex 1.813 4.282 3
 endloop
endfacet
facet normal 0.363 0.728 -0.582
 outer loop
  vertex 0.974 2.302 0
  vertex 1.813 4.282 3
  vertex 1.25 2.165 0
 endloop
endfacet
facet normal 0.363 0.728 -0.582
 outer loop
  vertex 1.25 2.165 0
  vertex 1.813 4.282 3
  vertex 2.325 4.027 3
 endloop
endfacet
facet normal 0.449 0.678 -0.582
 outer loop
  vertex 1.25 2.165 0
  vertex 2.325 4.027 3
  vertex 1.507 1.995 0
 endloop
endfacet
facet normal 0.449 0.678 -0.582
 outer loop
  vertex 1.507 1.995 0
  vertex 2.325 4.027 3
  vertex 2.802 3.711 3
 endloop
endfacet
facet normal 0.529 0.618 -0.582
 outer loop
  vertex 1.507 1.995 0
  vertex 2.802 3.711 3
  vertex 1.74 1.795 0
 endloop
endfacet
facet normal 0.529 0.618 -0.582
 outer loop
  vertex 1.74 1.795 0
  vertex 2.802 3.711 3
  vertex 3.237 3.338 3
 endloop
endfacet
facet normal 0.601 0.548 -0.582
 outer loop
  vertex 1.74 1.795 0
  vertex 3.237 3.338 3
  vertex 1.948 1.567 0
 endloop
endfacet
facet normal 0.601 0.548 -0.582
 outer loop
  vertex 1.948 1.567 0
  vertex 3.237 3.338 3
  vertex 3.623 2.915 3
 endloop
endfacet
facet normal 0.664 0.47 -0.582
 outer loop
  vertex 1.948 1.567 0
  vertex 3.623 2.915 3
  vertex 2.126 1.316 0
 endloop
endfacet
facet normal 0.664 0.47 -0.582
 outer loop
  vertex 2.126 1.316 0
  vertex 3.623 2.915 3
  vertex 3.954 2.448 3
 endloop
endfacet
facet normal 0.717 0.385 -0.582
 outer loop
  vertex 2.126 1.316 0
  vertex 3.954 2.448 3
  vertex 2.271 1.045 0
 endloop
endfacet
facet normal 0.717 0.385 -0.582
 outer loop
  vertex 2.271 1.045 0
  vertex 3.954 2.448 3
  vertex 4.224 1.944 3
 endloop
endfacet
facet normal 0.758 0.294 -0.582
 outer loop
  vertex 2.271 1.045 0
  vertex 4.224 1.944 3
  vertex 2.382 0.758 0
 endloop
endfacet
facet normal 0.758 0.294 -0.582
 outer loop
  vertex 2.382 0.758 0
  vertex 4.224 1.944 3
  vertex 4.431 1.41 3
 endloop
endfacet
facet normal 0.789 0.198 -0.582
 outer loop
  vertex 2.382 0.758 0
  vertex 4.431 1.41 3
  vertex 2.457 0.459 0
 endloop
endfacet
facet normal 0.789 0.198 -0.582
 outer loop
  vertex 2.457 0.459 0
  vertex 4.431 1.41 3
  vertex 4.571 0.854 3
 endloop
endfacet
facet normal 0.807 0.1 -0.582
 outer loop
  vertex 2.457 0.459 0
  vertex 4.571 0.854 3
  vertex 2.495 0.154 0
 endloop
endfacet
facet normal 0.807 0.1 -0.582
 outer loop
  vertex 2.495 0.154 0
  vertex 4.571 0.854 3
  vertex 4.641 0.286 3
 endloop
endfacet
facet normal 1 0.031 -0
 outer loop
  vertex 2.495 0.154 -10.5
  vertex 2.495 0.154 0
  vertex 2.5 0 -10.5
 endloop
endfacet
facet normal 1 0.031 -0
 outer loop
  vertex 2.5 0 -10.5
  vertex 2.495 0.154 0
  vertex 2.5 0 0
 endloop
endfacet
facet normal 1 -0.031 0
 outer loop
  vertex 2.5 0 -10.5
  vertex 2.5 0 0
  vertex 2.495 -0.154 -10.5
 endloop
endfacet
facet normal 1 -0.031 0
 outer loop
  vertex 2.495 -0.154 -10.5
  vertex 2.5 0 0
  vertex 2.495 -0.154 0
 endloop
endfacet
facet normal 0.992 -0.123 0
 outer loop
  vertex 2.495 -0.154 -10.5
  vertex 2.495 -0.154 0
  vertex 2.457 -0.459 -10.5
 endloop
endfacet
facet normal 0.992 -0.123 0
 outer loop
  vertex 2.457 -0.459 -10.5
  vertex 2.495 -0.154 0
  vertex 2.457 -0.459 0
 endloop
endfacet
facet normal 0.97 -0.244 0
 outer loop
  vertex 2.457 -0.459 -10.5
  vertex 2.457 -0.459 0
  vertex 2.382 -0.758 -10.5
 endloop
endfacet
facet normal 0.97 -0.244 0
 outer loop
  vertex 2.382 -0.758 -10.5
  vertex 2.457 -0.459 0
  vertex 2.382 -0.758 0
 endloop
endfacet
facet normal 0.932 -0.361 0
 outer loop
  vertex 2.382 -0.758 -10.5
  vertex 2.382 -0.758 0
  vertex 2.271 -1.045 -10.5
 endloop
endfacet
facet normal 0.932 -0.361 0
 outer loop
  vertex 2.271 -1.045 -10.5
  vertex 2.382 -0.758 0
  vertex 2.271 -1.045 0
 endloop
endfacet
facet normal 0.881 -0.473 0
 outer loop
  vertex 2.271 -1.045 -10.5
  vertex 2.271 -1.045 0
  vertex 2.126 -1.316 -10.5
 endloop
endfacet
facet normal 0.881 -0.473 0
 outer loop
  vertex 2.126 -1.316 -10.5
  vertex 2.271 -1.045 0
  vertex 2.126 -1.316 0
 endloop
endfacet
facet normal 0.816 -0.578 0
 outer loop
  vertex 2.126 -1.316 -10.5
  vertex 2.126 -1.316 0
  vertex 1.948 -1.567 -10.5
 endloop
endfacet
facet normal 0.816 -0.578 0
 outer loop
  vertex 1.948 -1.567 -10.5
  vertex 2.126 -1.316 0
  vertex 1.948 -1.567 0
 endloop
endfacet
facet normal 0.739 -0.674 0
 outer loop
  vertex 1.948 -1.567 -10.5
  vertex 1.948 -1.567 0
  vertex 1.74 -1.795 -10.5
 endloop
endfacet
facet normal 0.739 -0.674 0
 outer loop
  vertex 1.74 -1.795 -10.5
  vertex 1.948 -1.567 0
  vertex 1.74 -1.795 0
 endloop
endfacet
facet normal 0.651 -0.759 0
 outer loop
  vertex 1.74 -1.795 -10.5
  vertex 1.74 -1.795 0
  vertex 1.507 -1.995 -10.5
 endloop
endfacet
facet normal 0.651 -0.759 -0
 outer loop
  vertex 1.507 -1.995 -10.5
  vertex 1.74 -1.795 0
  vertex 1.507 -1.995 0
 endloop
endfacet
facet normal 0.552 -0.834 -0
 outer loop
  vertex 1.507 -1.995 -10.5
  vertex 1.507 -1.995 0
  vertex 1.25 -2.165 -10.5
 endloop
endfacet
facet normal 0.552 -0.834 0
 outer loop
  vertex 1.25 -2.165 -10.5
  vertex 1.507 -1.995 0
  vertex 1.25 -2.165 0
 endloop
endfacet
facet normal 0.446 -0.895 0
 outer loop
  vertex 1.25 -2.165 -10.5
  vertex 1.25 -2.165 0
  vertex 0.974 -2.302 -10.5
 endloop
endfacet
facet normal 0.446 -0.895 0
 outer loop
  vertex 0.974 -2.302 -10.5
  vertex 1.25 -2.165 0
  vertex 0.974 -2.302 0
 endloop
endfacet
facet normal 0.332 -0.943 0
 outer loop
  vertex 0.974 -2.302 -10.5
  vertex 0.974 -2.302 0
  vertex 0.684 -2.405 -10.5
 endloop
endfacet
facet normal 0.332 -0.943 0
 outer loop
  vertex 0.684 -2.405 -10.5
  vertex 0.974 -2.302 0
  vertex 0.684 -2.405 0
 endloop
endfacet
facet normal 0.214 -0.977 0
 outer loop
  vertex 0.684 -2.405 -10.5
  vertex 0.684 -2.405 0
  vertex 0.383 -2.47 -10.5
 endloop
endfacet
facet normal 0.214 -0.977 0
 outer loop
  vertex 0.383 -2.47 -10.5
  vertex 0.684 -2.405 0
  vertex 0.383 -2.47 0
 endloop
endfacet
facet normal 0.092 -0.996 0
 outer loop
  vertex 0.383 -2.47 -10.5
  vertex 0.383 -2.47 0
  vertex 0.077 -2.499 -10.5
 endloop
endfacet
facet normal 0.092 -0.996 0
 outer loop
  vertex 0.077 -2.499 -10.5
  vertex 0.383 -2.47 0
  vertex 0.077 -2.499 0
 endloop
endfacet
facet normal -0.031 -1 0
 outer loop
  vertex 0.077 -2.499 -10.5
  vertex 0.077 -2.499 0
  vertex -0.231 -2.489 -10.5
 endloop
endfacet
facet normal -0.031 -1 0
 outer loop
  vertex -0.231 -2.489 -10.5
  vertex 0.077 -2.499 0
  vertex -0.231 -2.489 0
 endloop
endfacet
facet normal -0.153 -0.988 0
 outer loop
  vertex -0.231 -2.489 -10.5
  vertex -0.231 -2.489 0
  vertex -0.535 -2.442 -10.5
 endloop
endfacet
facet normal -0.153 -0.988 0
 outer loop
  vertex -0.535 -2.442 -10.5
  vertex -0.231 -2.489 0
  vertex -0.535 -2.442 0
 endloop
endfacet
facet normal -0.274 -0.962 0
 outer loop
  vertex -0.535 -2.442 -10.5
  vertex -0.535 -2.442 0
  vertex -0.831 -2.358 -10.5
 endloop
endfacet
facet normal -0.274 -0.962 0
 outer loop
  vertex -0.831 -2.358 -10.5
  vertex -0.535 -2.442 0
  vertex -0.831 -2.358 0
 endloop
endfacet
facet normal -0.39 -0.921 0
 outer loop
  vertex -0.831 -2.358 -10.5
  vertex -0.831 -2.358 0
  vertex -1.114 -2.238 -10.5
 endloop
endfacet
facet normal -0.39 -0.921 0
 outer loop
  vertex -1.114 -2.238 -10.5
  vertex -0.831 -2.358 0
  vertex -1.114 -2.238 0
 endloop
endfacet
facet normal -0.5 -0.866 0
 outer loop
  vertex -1.114 -2.238 -10.5
  vertex -1.114 -2.238 0
  vertex -1.381 -2.084 -10.5
 endloop
endfacet
facet normal -0.5 -0.866 0
 outer loop
  vertex -1.381 -2.084 -10.5
  vertex -1.114 -2.238 0
  vertex -1.381 -2.084 0
 endloop
endfacet
facet normal -0.603 -0.798 0
 outer loop
  vertex -1.381 -2.084 -10.5
  vertex -1.381 -2.084 0
  vertex -1.627 -1.899 -10.5
 endloop
endfacet
facet normal -0.603 -0.798 0
 outer loop
  vertex -1.627 -1.899 -10.5
  vertex -1.381 -2.084 0
  vertex -1.627 -1.899 0
 endloop
endfacet
facet normal -0.696 -0.718 0
 outer loop
  vertex -1.627 -1.899 -10.5
  vertex -1.627 -1.899 0
  vertex -1.848 -1.684 -10.5
 endloop
endfacet
facet normal -0.696 -0.718 0
 outer loop
  vertex -1.848 -1.684 -10.5
  vertex -1.627 -1.899 0
  vertex -1.848 -1.684 0
 endloop
endfacet
facet normal -0.779 -0.627 0
 outer loop
  vertex -1.848 -1.684 -10.5
  vertex -1.848 -1.684 0
  vertex -2.04 -1.444 -10.5
 endloop
endfacet
facet normal -0.779 -0.627 0
 outer loop
  vertex -2.04 -1.444 -10.5
  vertex -1.848 -1.684 0
  vertex -2.04 -1.444 0
 endloop
endfacet
facet normal -0.85 -0.526 0
 outer loop
  vertex -2.04 -1.444 -10.5
  vertex -2.04 -1.444 0
  vertex -2.203 -1.183 -10.5
 endloop
endfacet
facet normal -0.85 -0.526 0
 outer loop
  vertex -2.203 -1.183 -10.5
  vertex -2.04 -1.444 0
  vertex -2.203 -1.183 0
 endloop
endfacet
facet normal -0.908 -0.418 0
 outer loop
  vertex -2.203 -1.183 -10.5
  vertex -2.203 -1.183 0
  vertex -2.331 -0.903 -10.5
 endloop
endfacet
facet normal -0.908 -0.418 0
 outer loop
  vertex -2.331 -0.903 -10.5
  vertex -2.203 -1.183 0
  vertex -2.331 -0.903 0
 endloop
endfacet
facet normal -0.953 -0.303 0
 outer loop
  vertex -2.331 -0.903 -10.5
  vertex -2.331 -0.903 0
  vertex -2.424 -0.61 -10.5
 endloop
endfacet
facet normal -0.953 -0.303 0
 outer loop
  vertex -2.424 -0.61 -10.5
  vertex -2.331 -0.903 0
  vertex -2.424 -0.61 0
 endloop
endfacet
facet normal -0.983 -0.184 0
 outer loop
  vertex -2.424 -0.61 -10.5
  vertex -2.424 -0.61 0
  vertex -2.481 -0.307 -10.5
 endloop
endfacet
facet normal -0.983 -0.184 0
 outer loop
  vertex -2.481 -0.307 -10.5
  vertex -2.424 -0.61 0
  vertex -2.481 -0.307 0
 endloop
endfacet
facet normal -0.998 -0.062 0
 outer loop
  vertex -2.481 -0.307 -10.5
  vertex -2.481 -0.307 0
  vertex -2.5 -0 -10.5
 endloop
endfacet
facet normal -0.998 -0.062 0
 outer loop
  vertex -2.5 -0 -10.5
  vertex -2.481 -0.307 0
  vertex -2.5 -0 0
 endloop
endfacet
facet normal -0.998 0.062 0
 outer loop
  vertex -2.5 -0 -10.5
  vertex -2.5 -0 0
  vertex -2.481 0.307 -10.5
 endloop
endfacet
facet normal -0.998 0.062 0
 outer loop
  vertex -2.481 0.307 -10.5
  vertex -2.5 -0 0
  vertex -2.481 0.307 0
 endloop
endfacet
facet normal -0.983 0.184 0
 outer loop
  vertex -2.481 0.307 -10.5
  vertex -2.481 0.307 0
  vertex -2.424 0.61 -10.5
 endloop
endfacet
facet normal -0.983 0.184 0
 outer loop
  vertex -2.424 0.61 -10.5
  vertex -2.481 0.307 0
  vertex -2.424 0.61 0
 endloop
endfacet
facet normal -0.953 0.303 0
 outer loop
  vertex -2.424 0.61 -10.5
  vertex -2.424 0.61 0
  vertex -2.331 0.903 -10.5
 endloop
endfacet
facet normal -0.953 0.303 0
 outer loop
  vertex -2.331 0.903 -10.5
  vertex -2.424 0.61 0
  vertex -2.331 0.903 0
 endloop
endfacet
facet normal -0.908 0.418 0
 outer loop
  vertex -2.331 0.903 -10.5
  vertex -2.331 0.903 0
  vertex -2.203 1.183 -10.5
 endloop
endfacet
facet normal -0.908 0.418 0
 outer loop
  vertex -2.203 1.183 -10.5
  vertex -2.331 0.903 0
  vertex -2.203 1.183 0
 endloop
endfacet
facet normal -0.85 0.526 0
 outer loop
  vertex -2.203 1.183 -10.5
  vertex -2.203 1.183 0
  vertex -2.04 1.444 -10.5
 endloop
endfacet
facet normal -0.85 0.526 0
 outer loop
  vertex -2.04 1.444 -10.5
  vertex -2.203 1.183 0
  vertex -2.04 1.444 0
 endloop
endfacet
facet normal -0.779 0.627 0
 outer loop
  vertex -2.04 1.444 -10.5
  vertex -2.04 1.444 0
  vertex -1.848 1.684 -10.5
 endloop
endfacet
facet normal -0.779 0.627 0
 outer loop
  vertex -1.848 1.684 -10.5
  vertex -2.04 1.444 0
  vertex -1.848 1.684 0
 endloop
endfacet
facet normal -0.696 0.718 0
 outer loop
  vertex -1.848 1.684 -10.5
  vertex -1.848 1.684 0
  vertex -1.627 1.899 -10.5
 endloop
endfacet
facet normal -0.696 0.718 0
 outer loop
  vertex -1.627 1.899 -10.5
  vertex -1.848 1.684 0
  vertex -1.627 1.899 0
 endloop
endfacet
facet normal -0.603 0.798 0
 outer loop
  vertex -1.627 1.899 -10.5
  vertex -1.627 1.899 0
  vertex -1.381 2.084 -10.5
 endloop
endfacet
facet normal -0.603 0.798 0
 outer loop
  vertex -1.381 2.084 -10.5
  vertex -1.627 1.899 0
  vertex -1.381 2.084 0
 endloop
endfacet
facet normal -0.5 0.866 0
 outer loop
  vertex -1.381 2.084 -10.5
  vertex -1.381 2.084 0
  vertex -1.114 2.238 -10.5
 endloop
endfacet
facet normal -0.5 0.866 0
 outer loop
  vertex -1.114 2.238 -10.5
  vertex -1.381 2.084 0
  vertex -1.114 2.238 0
 endloop
endfacet
facet normal -0.39 0.921 0
 outer loop
  vertex -1.114 2.238 -10.5
  vertex -1.114 2.238 0
  vertex -0.831 2.358 -10.5
 endloop
endfacet
facet normal -0.39 0.921 0
 outer loop
  vertex -0.831 2.358 -10.5
  vertex -1.114 2.238 0
  vertex -0.831 2.358 0
 endloop
endfacet
facet normal -0.274 0.962 0
 outer loop
  vertex -0.831 2.358 -10.5
  vertex -0.831 2.358 0
  vertex -0.535 2.442 -10.5
 endloop
endfacet
facet normal -0.274 0.962 0
 outer loop
  vertex -0.535 2.442 -10.5
  vertex -0.831 2.358 0
  vertex -0.535 2.442 0
 endloop
endfacet
facet normal -0.153 0.988 0
 outer loop
  vertex -0.535 2.442 -10.5
  vertex -0.535 2.442 0
  vertex -0.231 2.489 -10.5
 endloop
endfacet
facet normal -0.153 0.988 0
 outer loop
  vertex -0.231 2.489 -10.5
  vertex -0.535 2.442 0
  vertex -0.231 2.489 0
 endloop
endfacet
facet normal -0.031 1 0
 outer loop
  vertex -0.231 2.489 -10.5
  vertex -0.231 2.489 0
  vertex 0.077 2.499 -10.5
 endloop
endfacet
facet normal -0.031 1 0
 outer loop
  vertex 0.077 2.499 -10.5
  vertex -0.231 2.489 0
  vertex 0.077 2.499 0
 endloop
endfacet
facet normal 0.092 0.996 -0
 outer loop
  vertex 0.077 2.499 -10.5
  vertex 0.077 2.499 0
  vertex 0.383 2.47 -10.5
 endloop
endfacet
facet normal 0.092 0.996 -0
 outer loop
  vertex 0.383 2.47 -10.5
  vertex 0.077 2.499 0
  vertex 0.383 2.47 0
 endloop
endfacet
facet normal 0.214 0.977 -0
 outer loop
  vertex 0.383 2.47 -10.5
  vertex 0.383 2.47 0
  vertex 0.684 2.405 -10.5
 endloop
endfacet
facet normal 0.214 0.977 -0
 outer loop
  vertex 0.684 2.405 -10.5
  vertex 0.383 2.47 0
  vertex 0.684 2.405 0
 endloop
endfacet
facet normal 0.332 0.943 -0
 outer loop
  vertex 0.684 2.405 -10.5
  vertex 0.684 2.405 0
  vertex 0.974 2.302 -10.5
 endloop
endfacet
facet normal 0.332 0.943 -0
 outer loop
  vertex 0.974 2.302 -10.5
  vertex 0.684 2.405 0
  vertex 0.974 2.302 0
 endloop
endfacet
facet normal 0.446 0.895 -0
 outer loop
  vertex 0.974 2.302 -10.5
  vertex 0.974 2.302 0
  vertex 1.25 2.165 -10.5
 endloop
endfacet
facet normal 0.446 0.895 -0
 outer loop
  vertex 1.25 2.165 -10.5
  vertex 0.974 2.302 0
  vertex 1.25 2.165 0
 endloop
endfacet
facet normal 0.552 0.834 -0
 outer loop
  vertex 1.25 2.165 -10.5
  vertex 1.25 2.165 0
  vertex 1.507 1.995 -10.5
 endloop
endfacet
facet normal 0.552 0.834 -0
 outer loop
  vertex 1.507 1.995 -10.5
  vertex 1.25 2.165 0
  vertex 1.507 1.995 0
 endloop
endfacet
facet normal 0.651 0.759 -0
 outer loop
  vertex 1.507 1.995 -10.5
  vertex 1.507 1.995 0
  vertex 1.74 1.795 -10.5
 endloop
endfacet
facet normal 0.651 0.759 -0
 outer loop
  vertex 1.74 1.795 -10.5
  vertex 1.507 1.995 0
  vertex 1.74 1.795 0
 endloop
endfacet
facet normal 0.739 0.674 -0
 outer loop
  vertex 1.74 1.795 -10.5
  vertex 1.74 1.795 0
  vertex 1.948 1.567 -10.5
 endloop
endfacet
facet normal 0.739 0.674 -0
 outer loop
  vertex 1.948 1.567 -10.5
  vertex 1.74 1.795 0
  vertex 1.948 1.567 0
 endloop
endfacet
facet normal 0.816 0.578 -0
 outer loop
  vertex 1.948 1.567 -10.5
  vertex 1.948 1.567 0
  vertex 2.126 1.316 -10.5
 endloop
endfacet
facet normal 0.816 0.578 -0
 outer loop
  vertex 2.126 1.316 -10.5
  vertex 1.948 1.567 0
  vertex 2.126 1.316 0
 endloop
endfacet
facet normal 0.881 0.473 -0
 outer loop
  vertex 2.126 1.316 -10.5
  vertex 2.126 1.316 0
  vertex 2.271 1.045 -10.5
 endloop
endfacet
facet normal 0.881 0.473 -0
 outer loop
  vertex 2.271 1.045 -10.5
  vertex 2.126 1.316 0
  vertex 2.271 1.045 0
 endloop
endfacet
facet normal 0.932 0.361 -0
 outer loop
  vertex 2.271 1.045 -10.5
  vertex 2.271 1.045 0
  vertex 2.382 0.758 -10.5
 endloop
endfacet
facet normal 0.932 0.361 -0
 outer loop
  vertex 2.382 0.758 -10.5
  vertex 2.271 1.045 0
  vertex 2.382 0.758 0
 endloop
endfacet
facet normal 0.97 0.244 -0
 outer loop
  vertex 2.382 0.758 -10.5
  vertex 2.382 0.758 0
  vertex 2.457 0.459 -10.5
 endloop
endfacet
facet normal 0.97 0.244 -0
 outer loop
  vertex 2.457 0.459 -10.5
  vertex 2.382 0.758 0
  vertex 2.457 0.459 0
 endloop
endfacet
facet normal 0.992 0.123 -0
 outer loop
  vertex 2.457 0.459 -10.5
  vertex 2.457 0.459 0
  vertex 2.495 0.154 -10.5
 endloop
endfacet
facet normal 0.992 0.123 -0
 outer loop
  vertex 2.495 0.154 -10.5
  vertex 2.457 0.459 0
  vertex 2.495 0.154 0
 endloop
endfacet
endsolid CADClick
